<?xml version="1.0" encoding="UTF-8" standalone="no"?>
<!-- Created with Inkscape (http://www.inkscape.org/) -->

<svg
   width="48"
   height="48"
   viewBox="0 0 12.7 12.7"
   version="1.1"
   id="svg5"
   xml:space="preserve"
   inkscape:export-filename="meteor.png"
   inkscape:export-xdpi="96"
   inkscape:export-ydpi="96"
   inkscape:version="1.2.2 (b0a8486541, 2022-12-01)"
   sodipodi:docname="meteor.svg"
   xmlns:inkscape="http://www.inkscape.org/namespaces/inkscape"
   xmlns:sodipodi="http://sodipodi.sourceforge.net/DTD/sodipodi-0.dtd"
   xmlns:xlink="http://www.w3.org/1999/xlink"
   xmlns="http://www.w3.org/2000/svg"
   xmlns:svg="http://www.w3.org/2000/svg"><sodipodi:namedview
     id="namedview7"
     pagecolor="#ffffff"
     bordercolor="#666666"
     borderopacity="1.0"
     inkscape:showpageshadow="2"
     inkscape:pageopacity="0"
     inkscape:pagecheckerboard="0"
     inkscape:deskcolor="#d1d1d1"
     inkscape:document-units="mm"
     showgrid="false"
     inkscape:zoom="8"
     inkscape:cx="24.125"
     inkscape:cy="10.1875"
     inkscape:window-width="1920"
     inkscape:window-height="1043"
     inkscape:window-x="0"
     inkscape:window-y="0"
     inkscape:window-maximized="1"
     inkscape:current-layer="layer1" /><defs
     id="defs2"><linearGradient
       inkscape:collect="always"
       id="linearGradient27212"><stop
         style="stop-color:#ff0844;stop-opacity:1;"
         offset="0"
         id="stop27208" /><stop
         style="stop-color:#ff347b;stop-opacity:1;"
         offset="1"
         id="stop27210" /></linearGradient><linearGradient
       inkscape:collect="always"
       xlink:href="#linearGradient27212"
       id="linearGradient27214"
       x1="-8.8455162"
       y1="6.4767933"
       x2="-5.3159957"
       y2="0.46041578"
       gradientUnits="userSpaceOnUse"
       gradientTransform="matrix(1.9452885,0,0,1.6931216,19.429582,-0.07839465)" /><linearGradient
       inkscape:collect="always"
       xlink:href="#linearGradient2140"
       id="linearGradient2142"
       x1="62.049839"
       y1="84.350975"
       x2="82.977028"
       y2="65.710075"
       gradientUnits="userSpaceOnUse"
       gradientTransform="matrix(0.09347457,0,0,0.08624372,1.6091897,-1.6640824)" /><linearGradient
       inkscape:collect="always"
       id="linearGradient2140"><stop
         style="stop-color:#f77031;stop-opacity:1;"
         offset="0"
         id="stop2136" /><stop
         style="stop-color:#ffb100;stop-opacity:1;"
         offset="1"
         id="stop2138" /></linearGradient><linearGradient
       inkscape:collect="always"
       xlink:href="#linearGradient22875"
       id="linearGradient22877"
       x1="24.25222"
       y1="107.75844"
       x2="54.85323"
       y2="91.990746"
       gradientUnits="userSpaceOnUse"
       gradientTransform="matrix(0.09347457,0,0,0.08624372,1.6091897,-1.6640824)" /><linearGradient
       inkscape:collect="always"
       id="linearGradient22875"><stop
         style="stop-color:#770e95;stop-opacity:1;"
         offset="0"
         id="stop22871" /><stop
         style="stop-color:#a4209d;stop-opacity:1;"
         offset="1"
         id="stop22873" /></linearGradient><linearGradient
       inkscape:collect="always"
       xlink:href="#linearGradient24366"
       id="linearGradient24368"
       x1="56.421658"
       y1="92.228508"
       x2="67.867828"
       y2="122.12873"
       gradientUnits="userSpaceOnUse"
       gradientTransform="matrix(0.09347457,0,0,0.08624372,1.6091897,-1.6640824)" /><linearGradient
       inkscape:collect="always"
       id="linearGradient24366"><stop
         style="stop-color:#a4209d;stop-opacity:1;"
         offset="0"
         id="stop24362" /><stop
         style="stop-color:#770e95;stop-opacity:1;"
         offset="1"
         id="stop24364" /></linearGradient><linearGradient
       inkscape:collect="always"
       xlink:href="#linearGradient22875"
       id="linearGradient25134"
       x1="23.438236"
       y1="87.57695"
       x2="18.256744"
       y2="109.8554"
       gradientUnits="userSpaceOnUse"
       gradientTransform="matrix(0.09347457,0,0,0.08624372,1.6091897,-1.6640824)" /><linearGradient
       inkscape:collect="always"
       xlink:href="#linearGradient22875"
       id="linearGradient25126"
       x1="15.185131"
       y1="137.42899"
       x2="14.454175"
       y2="115.5778"
       gradientUnits="userSpaceOnUse"
       gradientTransform="matrix(0.09347457,0,0,0.08624372,1.6091897,-1.6640824)" /><linearGradient
       inkscape:collect="always"
       xlink:href="#linearGradient22875"
       id="linearGradient25110"
       x1="20.624763"
       y1="131.32785"
       x2="31.532091"
       y2="116.3009"
       gradientUnits="userSpaceOnUse"
       gradientTransform="matrix(0.09347457,0,0,0.08624372,1.6091897,-1.6640824)" /><linearGradient
       inkscape:collect="always"
       xlink:href="#linearGradient22875"
       id="linearGradient25102"
       x1="19.618544"
       y1="139.05446"
       x2="43.508114"
       y2="131.47763"
       gradientUnits="userSpaceOnUse"
       gradientTransform="matrix(0.09347457,0,0,0.08624372,1.6091897,-1.6640824)" /></defs><g
     inkscape:label="Layer 1"
     inkscape:groupmode="layer"
     id="layer1"><circle
       style="fill:url(#linearGradient27214);fill-opacity:1;stroke:none;stroke-width:0.480929;stroke-linecap:round;stroke-linejoin:round;stroke-dasharray:none;stroke-opacity:1"
       id="path27206"
       cx="6.3499999"
       cy="6.3499999"
       r="6.3499999" /><path
       style="fill:url(#linearGradient2142);fill-opacity:1;stroke:none;stroke-width:0.023756px;stroke-linecap:butt;stroke-linejoin:miter;stroke-opacity:1"
       d="m 6.8322697,6.2063376 c 1.287903,2.645433 5.7e-4,0.0079 1.277096,2.649659 l 1.9774033,-1.749141 c 0,0 0.09264,-0.331716 -0.09264,-0.417188 -0.185278,-0.08547 -0.705173,0.08241 -0.705173,0.08241 0,0 -0.123478,0.05145 -0.184272,-0.04739 -0.06079,-0.09883 -0.180316,-0.2684 -0.180316,-0.2684 0,0 -0.04246,-0.02493 -0.03088,-0.106842 0.01158,-0.08191 0.01413,-0.233167 0.01413,-0.233167 0,0 -0.0053,-0.09393 0.04523,-0.132966 0.05049,-0.03903 1.345666,-1.21476 1.345666,-1.21476 l 0.19355,-0.256824 c 0,0 0.165979,-0.231489 0.05018,-0.473662 -0.115798,-0.242167 -0.266337,-0.302711 -0.443895,-0.331201 -0.1775593,-0.02849 -0.2856373,-0.305261 -0.2933573,-0.43347 -0.0077,-0.128209 0.02702,-0.425838 0.119659,-0.532679 0.09264,-0.106841 0.0193,-0.359698 0.0193,-0.359698 0,0 -0.142818,-0.281348 -0.478635,-0.263541 -0.335815,0.01781 -0.555833,0.299155 -0.555833,0.299155 l -0.904885,0.846893 c 0,0 -0.12947,0.26851 -0.249564,0.107341 -0.120094,-0.161169 -0.529505,-0.0554 -0.529505,-0.0554 l -1.015339,0.88643 c 0,0 -0.147388,0.196426 -0.278398,0.03525 -0.131014,-0.161168 -0.212897,-0.508689 -0.524049,-0.453288 -0.311152,0.0554 -0.431246,0.06547 -0.676892,0.39285 -0.245646,0.327375 -0.682352,1.055514 -0.682352,1.055514 0,0 -0.105911,0.217881 -0.171417,0.288392 -0.06551,0.07051 2.955189,0.685716 2.955188,0.685716 z"
       id="path2062"
       sodipodi:nodetypes="cccscscscsccsssscsccsccssscsc" /><path
       style="fill:url(#linearGradient22877);fill-opacity:1;stroke:none;stroke-width:0.0237933;stroke-linecap:butt;stroke-linejoin:miter;stroke-dasharray:none;stroke-opacity:1"
       d="m 3.8769837,5.5217216 -0.110809,0.132362 0.07723,2.022452 1.800601,0.587912 0.560231,-0.966916 0.640634,-1.09859 z"
       id="path5780"
       sodipodi:nodetypes="ccccccc" /><path
       style="fill:url(#linearGradient24368);fill-opacity:1;stroke:none;stroke-width:0.023756px;stroke-linecap:butt;stroke-linejoin:miter;stroke-opacity:1"
       d="m 5.6363367,8.2610456 1.08308,2.3222884 1.39297,-1.7299454 -1.269817,-2.655502 z"
       id="path5782"
       sodipodi:nodetypes="ccccc" /><path
       style="fill:url(#linearGradient25134);fill-opacity:1;stroke:none;stroke-width:0.023756px;stroke-linecap:butt;stroke-linejoin:miter;stroke-opacity:1"
       d="m 2.1254377,7.7376936 1.722129,-0.05928 -0.05519,-2.064522 z"
       id="path5784"
       sodipodi:nodetypes="cccc" /><path
       style="fill:url(#linearGradient25126);fill-opacity:1;stroke:none;stroke-width:0.023756px;stroke-linecap:butt;stroke-linejoin:miter;stroke-opacity:1"
       d="m 2.9053037,10.562904 0.128212,-0.09391 0.821759,-2.7945784 -1.729508,0.06287 -0.0091,0.03364 z"
       id="path5786"
       sodipodi:nodetypes="cccccc" /><path
       style="fill:url(#linearGradient25110);fill-opacity:1;stroke:none;stroke-width:0.023756px;stroke-linecap:butt;stroke-linejoin:miter;stroke-opacity:1"
       d="m 3.0368237,10.457794 0.810464,-2.7815844 1.790047,0.586157 0.02365,0.0267 z"
       id="path5788"
       sodipodi:nodetypes="ccccc" /><path
       style="fill:url(#linearGradient25102);fill-opacity:1;stroke:none;stroke-width:0.023756px;stroke-linecap:butt;stroke-linejoin:miter;stroke-opacity:1"
       d="m 2.9044837,10.564639 3.816937,0.01843 -1.059822,-2.2946514 z"
       id="path5790"
       sodipodi:nodetypes="cccc" /></g></svg>
